<svg id="Layer_1" data-name="Layer 1" xmlns="http://www.w3.org/2000/svg" xmlns:xlink="http://www.w3.org/1999/xlink" viewBox="0 0 11389.85 11625.38"><defs><style>.cls-1{fill:#eec260;}.cls-2,.cls-5,.cls-6{fill:#7e482b;}.cls-2,.cls-7{stroke:#000;}.cls-11,.cls-12,.cls-2,.cls-4,.cls-5,.cls-6,.cls-7{stroke-miterlimit:10;}.cls-3{clip-path:url(#clip-path);}.cls-11,.cls-12,.cls-4,.cls-7{fill:none;}.cls-4,.cls-6{stroke:#010202;}.cls-5{stroke:#020202;}.cls-8{fill:#b08554;}.cls-9{fill:#c4452a;}.cls-10{fill:#010101;}.cls-11,.cls-12{stroke:#edc160;stroke-width:4px;}.cls-12{stroke-dasharray:5.02 5.02;}</style><clipPath id="clip-path" transform="translate(4536.78 4534.11)"><path class="cls-1" d="M-690.53,658.32c54.8-30.12,141.75-68.67,254.22-82.22,188.83-22.77,336.42,38.54,399.81,69.62L476.21,843.56,1643.81,91.94l209.27,80.75-778.06,926,742,382.49,414.1-200.86,152.92,71-270.34,389.07L2053,2209.33l-125.56-48.45L1719.9,1731.63,903.16,1493,874.92,2706.63l-199.84-77.11L294.58,1334.71l-566.8-266.54c-77.2-34.89-201-104-308.11-234.6A831.35,831.35,0,0,1-690.53,658.32Z"/></clipPath></defs><title>sticker</title><ellipse class="cls-2" cx="4673.56" cy="5221.56" rx="109.53" ry="87.49"/><path class="cls-1" d="M-690.53,658.32c54.8-30.12,141.75-68.67,254.22-82.22,188.83-22.77,336.42,38.54,399.81,69.62L476.21,843.56,1643.81,91.94l209.27,80.75-778.06,926,742,382.49,414.1-200.86,152.92,71-270.34,389.07L2053,2209.33l-125.56-48.45L1719.9,1731.63,903.16,1493,874.92,2706.63l-199.84-77.11L294.58,1334.71l-566.8-266.54c-77.2-34.89-201-104-308.11-234.6A831.35,831.35,0,0,1-690.53,658.32Z" transform="translate(4536.78 4534.11)"/><g class="cls-3"><rect class="cls-1" x="-3495.87" y="-2225.95" width="9308.04" height="7009.06" transform="translate(5485.17 7525.02) rotate(-130.85)"/></g><path class="cls-4" d="M357.18,289.88" transform="translate(4536.78 4534.11)"/><path class="cls-5" d="M280.85,255.34S132,425.65,147.7,569.58,308.26,866.25,308.26,866.25s317.2,176.22,509.09,0S997.49,600,997.49,600s15.67-195.81-113.56-344.62" transform="translate(4536.78 4534.11)"/><ellipse class="cls-5" cx="4893.96" cy="5430.22" rx="109.53" ry="87.49"/><ellipse class="cls-5" cx="1031.55" cy="467.03" rx="109.53" ry="87.49" transform="translate(4441.46 5112.46) rotate(-30)"/><path class="cls-6" d="M319.32-28.84s-30.54,70-37.09,138.07-5.23,147.94,0,166.27c3.13,10.92,27.13,60.08,65.32,97.82,25.86,25.56,52.78,45.39,105.11,46.44,0,0,60.54,10.05,176.06,4.65,0,0,73-6.33,108.36-12.43,27.67-4.77,65.79-8,100.78-40.23,19.43-17.9,44.08-40.48,50.68-87.41,0,0,21.34-115.3,8.57-182.66,0,0-18.67-90.13-43.32-123,0,0-1.88-19.51,10.47-22.82,18.81-5,78-73.93,61.6-119.11S891-217.7,891-217.7l-1.86-1A122.36,122.36,0,0,0,848-231.18h0c-9.2-2.12-20.5,2.3-28.72,6.94-17.3,9.78-48,37.41-61.81,77.44L732.83-155c-24.64-8.22-131.42-26.7-174.55-14.38,0,0-96.51,12.32-121.15,39,0,0-7.07.71-8.22-16.43,0,0-26.69-76-73.92-73.92,0,0-73.93-12.32-96.52,41.07,0,0-12.32,57.49,0,78,0,0,26.7,39,55.45,55.44C313.92-46.18,323.09-38,319.32-28.84Z" transform="translate(4536.78 4534.11)"/><path class="cls-7" d="M432.36,50.58s25-54.4,93.38-41.79" transform="translate(4536.78 4534.11)"/><path class="cls-7" d="M636.37,8.83S688.22-21.1,736.73,28.74" transform="translate(4536.78 4534.11)"/><path class="cls-7" d="M432.36,28.74c10,7.11,13.54,3.19,13.54,3.19" transform="translate(4536.78 4534.11)"/><path class="cls-7" d="M446.43,13.25c7,10.1,11.65,7.62,11.65,7.62" transform="translate(4536.78 4534.11)"/><ellipse class="cls-8" cx="5127.05" cy="4732.7" rx="169.96" ry="127.43"/><path class="cls-7" d="M466.12,1.44c.92,12.23,6.21,12.45,6.21,12.45" transform="translate(4536.78 4534.11)"/><path class="cls-7" d="M733.62,8.81c-8.34,9-12.62,5.86-12.62,5.86" transform="translate(4536.78 4534.11)"/><path class="cls-7" d="M716.7-3.52c-4.77,11.3-9.86,9.82-9.86,9.82" transform="translate(4536.78 4534.11)"/><path class="cls-7" d="M695-11.11c1.58,12.16-3.56,13.45-3.56,13.45" transform="translate(4536.78 4534.11)"/><ellipse class="cls-9" cx="5362.67" cy="4662.64" rx="34.48" ry="28.5"/><ellipse class="cls-9" cx="4884.33" cy="4672.87" rx="34.57" ry="28.5"/><path class="cls-10" d="M566.77,116.46h49c9.45,0,20.71-1.33,28,6.31,3.6,3.77,5,9.24,4.71,14.44s-2,10.21-3.82,15.07a179.58,179.58,0,0,1-15.87,32.08c-2.63,4.13-5.6,8.27-9.87,10.66s-9.12,2.74-13.89,3.1c-7.18.53-14.56,1-21.44-1.08-15.65-4.83-25.22-18.37-32.37-32-3.45-6.57-7.78-13.06-8.44-20.65C541.46,129.22,551.49,116.46,566.77,116.46Z" transform="translate(4536.78 4534.11)"/><line class="cls-4" x1="5137.28" y1="4732.39" x2="5137.28" y2="4795.43"/><path class="cls-7" d="M666.61,235.92s-56,55.57-134.61,8.33" transform="translate(4536.78 4534.11)"/><path class="cls-11" d="M2173.94,1774a16.29,16.29,0,0,0,.8,2.36" transform="translate(4536.78 4534.11)"/><path class="cls-12" d="M2176.89,1780.94c7.05,13,30,42.44,101.1,72.34,68.76,28.9,198.71-55.08,204.53-71.24,0,0,10.77-33.2-21.82-40.65a10.42,10.42,0,0,0-9.95,3.09c-4.22,4.58-10.69,12-13.1,16.79-3.7,7.41-10.28-27.18-22.14-29.91-10.57-2.43-20.58,8.18-26.8,14.67A10.68,10.68,0,0,0,2386,1756a173.71,173.71,0,0,0,78.72,106c128.22,77.23,185.53,45.92,193.76,17.47" transform="translate(4536.78 4534.11)"/><path class="cls-11" d="M2659.09,1876.94c.16-.83.27-1.66.35-2.47" transform="translate(4536.78 4534.11)"/><path class="cls-8" d="M337.34-78.29a6.7,6.7,0,0,1-8.5-1C318-90.85,291.32-122.32,300.1-138c0,0,6.15-14.21,18.1-20.46s28.46-8.68,36.84-3.72c15.77,9.34,29.31,30.83,35.4,41.6a7.65,7.65,0,0,1-2.61,10.22Z" transform="translate(4536.78 4534.11)"/><path class="cls-8" d="M805.05-128a6.69,6.69,0,0,1-1.49-8.43c7.82-13.74,30.08-48.48,47.63-44.68,0,0,15.39,1.71,24.86,11.3s16.65,24.66,14.37,34.13c-4.3,17.82-20.87,37.07-29.38,46a7.65,7.65,0,0,1-10.54.51Z" transform="translate(4536.78 4534.11)"/></svg>